<svg version="1.1" width="33" height="22" viewBox="-1 -1 33 22" xmlns="http://www.w3.org/2000/svg" xmlns:xlink="http://www.w3.org/1999/xlink">
  <!-- Exported by Scratch - http://scratch.mit.edu/ -->
  <g id="ID0.8559858906082809" transform="matrix(0.8564593195915222, 0, 0, 0.8564593195915222, 0, 0.8)">
    <g id="R_Leg2">
      <path id="Outline_3_" d="M 98.528 78.416 C 96.782 69.228 87.007 65.621 87.007 65.621 C 87.007 65.621 83.994 68.414 84.016 69.787 C 95.430 77.051 87.840 86.996 90.712 89.743 C 94.737 93.592 99.620 84.178 98.528 78.416 Z M 92.841 87.770 C 91.433 87.653 93.653 79.784 92.153 76.288 C 90.719 72.950 88.194 70.680 85.690 69.196 L 87.091 67.548 C 100.840 73.972 96.550 88.080 92.841 87.770 Z " transform="matrix(0.23170548677444458, 0, 0, -0.23170548677444458, -1.65, 21.05)"/>
      <path id="Fill_3_" fill="#FF0000" d="M 87.092 67.546 L 85.691 69.194 C 88.195 70.678 90.720 72.948 92.154 76.286 C 93.654 79.782 91.433 87.651 92.842 87.768 C 96.550 88.080 100.840 73.972 87.092 67.546 Z " transform="matrix(0.23170548677444458, 0, 0, -0.23170548677444458, -1.65, 21.05)"/>
    </g>
    <g id="R_Leg1">
      <path id="Outline_2_" d="M 104.272 62.937 C 97.461 56.531 87.432 59.359 87.432 59.359 C 87.432 59.359 86.633 63.390 87.461 64.488 C 100.964 63.654 100.669 76.162 104.604 76.696 C 110.126 77.443 108.543 66.955 104.272 62.937 Z M 105.170 73.849 C 103.962 74.581 101.133 66.911 97.862 64.964 C 94.741 63.107 91.364 62.755 88.466 63.026 L 88.630 60.868 C 103.530 57.984 108.353 71.920 105.170 73.849 Z " transform="matrix(0.23170548677444458, 0, 0, -0.23170548677444458, -1.65, 21.05)"/>
      <path id="Fill_2_" fill="#FF0000" d="M 88.631 60.869 L 88.467 63.027 C 91.364 62.756 94.741 63.107 97.863 64.965 C 101.134 66.912 103.963 74.582 105.171 73.850 C 108.353 71.920 103.530 57.984 88.631 60.869 Z " transform="matrix(0.23170548677444458, 0, 0, -0.23170548677444458, -1.65, 21.05)"/>
    </g>
    <g id="L_Leg2">
      <path id="Outline_1_" d="M 67.405 69.785 C 67.427 68.410 64.412 65.619 64.412 65.619 C 64.412 65.619 54.636 69.226 52.892 78.412 C 51.798 84.174 56.682 93.588 60.709 89.738 C 63.580 86.994 55.990 77.047 67.405 69.785 Z M 59.270 76.285 C 57.770 79.781 59.990 87.648 58.582 87.765 C 54.872 88.077 50.581 73.969 64.331 67.543 L 65.733 69.192 C 63.227 70.676 60.702 72.945 59.270 76.285 Z " transform="matrix(0.23170548677444458, 0, 0, -0.23170548677444458, -1.65, 21.05)"/>
      <path id="Fill_1_" fill="#FF0000" d="M 64.330 67.543 L 65.732 69.192 C 63.227 70.675 60.702 72.944 59.270 76.284 C 57.770 79.780 59.990 87.647 58.582 87.764 C 54.871 88.078 50.580 73.969 64.330 67.543 Z " transform="matrix(0.23170548677444458, 0, 0, -0.23170548677444458, -1.65, 21.05)"/>
    </g>
    <g id="L_Leg1">
      <path id="Outline" d="M 63.988 59.357 C 63.988 59.357 53.959 56.529 47.148 62.937 C 42.877 66.955 41.294 77.441 46.815 76.693 C 50.751 76.158 50.457 63.651 63.960 64.485 C 64.786 63.387 63.988 59.357 63.988 59.357 Z M 53.558 64.961 C 50.288 66.907 47.460 74.577 46.252 73.845 C 43.068 71.917 47.890 57.982 62.789 60.865 L 62.954 63.023 C 60.056 62.752 56.679 63.103 53.558 64.961 Z " transform="matrix(0.23170548677444458, 0, 0, -0.23170548677444458, -1.65, 21.05)"/>
      <path id="Fill" fill="#FF0000" d="M 62.789 60.865 L 62.954 63.023 C 60.056 62.752 56.679 63.103 53.558 64.961 C 50.288 66.907 47.460 74.577 46.252 73.845 C 43.068 71.917 47.890 57.982 62.789 60.865 Z " transform="matrix(0.23170548677444458, 0, 0, -0.23170548677444458, -1.65, 21.05)"/>
    </g>
    <g id="L_Claw">
      <path id="Fill_5_" fill="#FF0000" d="M 54.858 44.467 C 54.850 44.468 54.842 44.468 54.834 44.470 C 48.448 45.492 43.984 42.942 42.205 40.546 C 42.203 40.543 42.201 40.540 42.199 40.537 C 42.054 40.341 41.926 40.146 41.817 39.955 C 41.790 39.907 41.774 39.862 41.749 39.814 C 41.673 39.668 41.597 39.522 41.542 39.381 C 41.509 39.295 41.494 39.215 41.469 39.132 C 41.440 39.034 41.402 38.933 41.384 38.839 C 41.351 38.665 41.338 38.498 41.346 38.341 C 41.359 38.073 41.446 37.758 41.581 37.480 C 41.628 37.219 41.768 36.968 42.039 36.780 C 47.288 33.122 49.732 26.460 47.903 20.496 C 46.898 17.214 39.249 10.604 36.980 12.684 C 35.853 13.716 38.764 16.157 38.194 18.550 C 37.724 20.522 35.505 22.204 36.767 24.290 C 37.652 25.751 37.001 29.607 34.982 30.842 C 34.771 30.971 34.577 31.044 34.423 31.021 C 34.417 31.025 34.414 31.030 34.408 31.034 C 34.398 31.030 34.394 31.022 34.385 31.018 C 34.332 31.003 34.287 30.972 34.248 30.926 C 33.559 30.430 34.156 28.976 33.729 27.997 C 32.463 25.091 29.720 25.878 29.018 22.893 C 28.340 20.016 31.601 16.139 28.650 14.118 C 27.681 13.454 26.661 13.378 26.104 12.181 C 24.867 9.527 27.223 6.878 24.182 4.722 C 21.895 3.100 19.576 3.794 17.296 5.192 C 6.171 12.014 12.484 35.638 27.714 39.271 C 29.905 39.794 32.599 39.571 34.834 39.404 C 41.264 51.872 51.893 49.282 56.457 47.047 C 56.548 47.003 56.612 46.980 56.674 46.960 C 56.165 46.471 55.531 45.689 54.858 44.467 Z " transform="matrix(0.23170548677444458, 0, 0, -0.23170548677444458, -1.65, 21.05)"/>
      <path id="Outline_5_" fill="#272525" d="M 55.560 42.977 L 54.308 43.383 C 47.155 43.476 45.059 40.537 43.585 38.160 C 44.895 36.924 47.394 34.296 48.715 32.213 C 51.236 28.238 50.906 21.309 48.419 17.473 C 42.852 8.883 30.292 6.635 35.699 15.601 C 38.105 19.590 32.983 20.971 35.438 25.045 C 35.805 25.654 35.429 26.753 34.985 27.852 C 34.799 24.694 31.562 24.833 31.519 21.581 C 31.495 19.726 34.510 14.715 30.344 12.964 C 25.693 11.008 29.216 7.067 27.741 3.928 C 26.592 1.484 23.730 0.008 21.627 0.416 C 10.637 2.549 7.120 14.220 9.027 23.513 C 10.845 32.371 18.180 43.854 33.876 42.323 C 38.333 53.713 53.251 52.276 57.828 47.768 L 58.625 47.125 L 55.560 42.977 Z M 56.457 47.048 C 51.893 49.283 41.264 51.873 34.834 39.405 C 32.599 39.572 29.905 39.795 27.714 39.272 C 12.483 35.639 6.171 12.015 17.296 5.193 C 19.576 3.796 21.895 3.101 24.182 4.723 C 27.223 6.879 24.867 9.528 26.104 12.182 C 26.661 13.379 27.681 13.455 28.650 14.119 C 31.601 16.140 28.340 20.017 29.018 22.894 C 29.720 25.879 32.463 25.092 33.729 27.998 C 34.155 28.977 33.559 30.431 34.248 30.927 C 34.287 30.973 34.332 31.004 34.385 31.019 C 34.394 31.023 34.398 31.031 34.408 31.035 C 34.414 31.031 34.417 31.026 34.423 31.022 C 34.576 31.045 34.770 30.972 34.982 30.843 C 37.001 29.608 37.652 25.752 36.767 24.291 C 35.505 22.205 37.724 20.523 38.194 18.551 C 38.764 16.158 35.853 13.717 36.980 12.685 C 39.249 10.605 46.898 17.215 47.903 20.497 C 49.732 26.461 47.288 33.123 42.039 36.781 C 41.768 36.969 41.629 37.220 41.581 37.481 C 41.446 37.759 41.359 38.074 41.346 38.342 C 41.338 38.499 41.351 38.665 41.384 38.840 C 41.402 38.934 41.440 39.035 41.469 39.133 C 41.494 39.216 41.509 39.296 41.542 39.382 C 41.597 39.523 41.672 39.669 41.749 39.815 C 41.774 39.862 41.790 39.908 41.817 39.956 C 41.926 40.147 42.053 40.342 42.199 40.538 C 42.201 40.541 42.202 40.544 42.205 40.547 C 43.987 42.940 48.449 45.493 54.834 44.471 C 54.842 44.470 54.850 44.470 54.858 44.468 C 55.531 45.691 56.165 46.472 56.673 46.962 L 56.673 46.962 C 56.612 46.981 56.548 47.004 56.457 47.048 Z " transform="matrix(0.23170548677444458, 0, 0, -0.23170548677444458, -1.65, 21.05)"/>
    </g>
    <g id="R_Claw">
      <path id="Fill_4_" fill="#FF0000" d="M 133.669 5.193 C 131.389 3.796 129.071 3.100 126.784 4.722 C 123.744 6.879 126.097 9.527 124.862 12.182 C 124.304 13.378 123.284 13.455 122.315 14.119 C 119.366 16.140 122.626 20.017 121.948 22.894 C 121.246 25.879 118.504 25.092 117.238 27.998 C 116.812 28.972 117.399 30.415 116.731 30.920 C 116.690 30.974 116.639 31.005 116.581 31.021 C 116.572 31.025 116.568 31.033 116.559 31.037 C 116.553 31.033 116.550 31.028 116.544 31.024 C 116.391 31.046 116.197 30.974 115.986 30.845 C 113.968 29.610 113.316 25.754 114.201 24.293 C 115.463 22.208 113.245 20.525 112.774 18.554 C 112.205 16.160 115.116 13.720 113.988 12.687 C 111.718 10.607 104.070 17.218 103.064 20.499 C 101.299 26.258 103.788 33.037 108.687 36.791 C 108.883 36.828 109.063 36.981 109.212 37.190 C 109.564 37.435 109.636 37.685 109.541 37.892 C 109.585 38.048 109.614 38.203 109.621 38.344 C 109.629 38.501 109.616 38.668 109.583 38.843 C 109.563 38.947 109.522 39.058 109.488 39.166 C 109.465 39.240 109.453 39.311 109.423 39.388 C 109.362 39.545 109.279 39.707 109.191 39.871 C 109.174 39.903 109.165 39.933 109.146 39.964 C 107.693 42.519 102.981 45.627 95.994 44.455 C 95.514 45.192 94.839 46.158 94.175 46.882 C 98.812 49.107 109.758 51.765 116.133 39.406 C 118.366 39.573 121.061 39.797 123.253 39.274 C 138.483 35.638 144.795 12.015 133.669 5.193 Z " transform="matrix(0.23170548677444458, 0, 0, -0.23170548677444458, -1.65, 21.05)"/>
      <path id="Outline_4_" fill="#272525" d="M 129.340 0.418 C 127.236 0.010 124.374 1.485 123.227 3.929 C 121.751 7.068 125.275 11.009 120.623 12.965 C 116.456 14.717 119.471 19.728 119.447 21.583 C 119.404 24.836 116.166 24.696 115.980 27.854 C 115.538 26.755 115.161 25.657 115.528 25.047 C 117.984 20.972 112.862 19.592 115.267 15.603 C 120.673 6.637 108.114 8.885 102.548 17.475 C 100.060 21.311 99.730 28.241 102.250 32.215 C 103.769 34.607 106.478 37.110 107.496 37.974 C 106.014 40.380 104.001 43.479 96.660 43.384 C 95.571 42.769 94.874 42.374 94.874 42.374 L 92.499 46.874 L 93.138 47.767 C 97.714 52.275 112.634 53.712 117.091 42.322 C 132.785 43.854 140.121 32.371 141.939 23.513 C 143.848 14.222 140.330 2.551 129.340 0.418 Z M 123.253 39.273 C 121.061 39.796 118.366 39.572 116.133 39.405 C 109.758 51.764 98.812 49.106 94.175 46.881 C 94.839 46.157 95.514 45.191 95.994 44.454 L 95.994 44.454 C 102.980 45.626 107.691 42.516 109.146 39.963 C 109.165 39.932 109.174 39.901 109.191 39.870 C 109.280 39.706 109.363 39.544 109.423 39.387 C 109.453 39.310 109.465 39.240 109.488 39.165 C 109.522 39.057 109.563 38.945 109.583 38.842 C 109.616 38.667 109.629 38.500 109.621 38.343 C 109.614 38.202 109.585 38.047 109.541 37.891 C 109.636 37.684 109.563 37.434 109.212 37.189 C 109.063 36.980 108.883 36.827 108.687 36.790 C 103.788 33.036 101.299 26.257 103.064 20.498 C 104.070 17.217 111.718 10.606 113.988 12.686 C 115.116 13.719 112.205 16.159 112.774 18.553 C 113.245 20.524 115.462 22.207 114.201 24.292 C 113.316 25.753 113.969 29.609 115.986 30.844 C 116.197 30.973 116.390 31.046 116.544 31.023 C 116.550 31.027 116.553 31.032 116.559 31.036 C 116.569 31.032 116.573 31.024 116.581 31.020 C 116.640 31.004 116.690 30.973 116.731 30.919 C 117.399 30.414 116.812 28.971 117.238 27.997 C 118.504 25.091 121.246 25.878 121.948 22.893 C 122.626 20.016 119.366 16.139 122.315 14.118 C 123.284 13.454 124.304 13.377 124.862 12.181 C 126.097 9.526 123.744 6.878 126.784 4.721 C 129.071 3.099 131.388 3.794 133.669 5.192 C 144.795 12.015 138.483 35.638 123.253 39.273 Z " transform="matrix(0.23170548677444458, 0, 0, -0.23170548677444458, -1.65, 21.05)"/>
    </g>
    <g id="L_Eye">
      <path id="Eye_Socket_1_" d="M 65.193 19.314 C 69.430 17.212 71.941 10.830 66.833 6.304 C 61.095 1.221 52.227 9.846 56.273 16.160 C 58.017 18.882 60.172 19.983 62.243 20.009 C 63.058 24.627 65.698 30.779 69.757 33.280 L 71.347 30.700 C 68.154 28.732 65.852 23.281 65.193 19.314 Z M 58.267 13.461 C 56.698 5.777 66.955 4.765 67.713 12.465 C 67.833 13.670 67.596 14.603 67.009 15.573 C 66.301 16.745 65.348 17.411 64.333 17.684 L 62.531 17.764 C 60.572 17.432 58.747 15.813 58.267 13.461 Z " transform="matrix(0.23170548677444458, 0, 0, -0.23170548677444458, -1.65, 21.05)"/>
      <path id="White_1_" fill="#FFFFFF" d="M 67.713 12.465 C 67.833 13.670 67.596 14.603 67.009 15.573 C 64.543 19.654 59.148 17.772 58.267 13.461 C 56.698 5.777 66.955 4.766 67.713 12.465 Z " transform="matrix(0.23170548677444458, 0, 0, -0.23170548677444458, -1.65, 21.05)"/>
      <path id="Pupil_1_" d="M 62.967 7.026 C 63.722 7.026 64.407 7.333 64.903 7.828 C 65.398 8.324 65.705 9.009 65.705 9.764 C 65.705 10.519 65.398 11.204 64.903 11.700 C 64.407 12.195 63.722 12.502 62.967 12.502 C 62.212 12.502 61.527 12.195 61.031 11.700 C 60.536 11.204 60.229 10.519 60.229 9.764 C 60.229 9.009 60.536 8.324 61.031 7.828 C 61.527 7.333 62.212 7.026 62.967 7.026 Z " transform="matrix(0.23170548677444458, 0, 0, -0.23170548677444458, -1.65, 21.05)"/>
    </g>
    <g id="R_Eye">
      <path id="Eye_Socket" d="M 92.581 8.413 C 85.649 -1.614 73.648 11.434 82.369 18.631 C 82.486 18.728 82.607 18.811 82.726 18.897 C 80.046 22.473 77.676 27.585 78.215 31.761 L 81.221 31.373 C 80.771 27.885 83.193 23.077 85.697 20.012 C 90.927 20.407 96.084 13.482 92.581 8.413 Z M 91.471 13.094 C 91.466 13.180 91.457 13.265 91.449 13.349 C 91.436 13.474 91.420 13.595 91.399 13.714 C 91.385 13.794 91.370 13.873 91.353 13.951 C 91.327 14.068 91.295 14.181 91.262 14.294 C 91.241 14.364 91.221 14.436 91.197 14.504 C 91.156 14.621 91.109 14.733 91.060 14.843 C 91.036 14.898 91.013 14.956 90.987 15.010 C 90.920 15.147 90.844 15.277 90.766 15.403 C 90.752 15.424 90.741 15.448 90.727 15.469 C 90.629 15.618 90.524 15.759 90.411 15.892 C 90.397 15.908 90.382 15.921 90.368 15.937 C 90.269 16.050 90.166 16.158 90.056 16.258 C 90.025 16.287 89.991 16.313 89.958 16.341 C 89.862 16.424 89.765 16.504 89.662 16.578 C 89.624 16.605 89.585 16.630 89.546 16.657 C 89.444 16.726 89.340 16.791 89.233 16.850 C 89.193 16.872 89.154 16.893 89.113 16.913 C 89.001 16.972 88.885 17.024 88.768 17.073 C 88.731 17.088 88.695 17.103 88.658 17.117 C 88.528 17.166 88.395 17.209 88.262 17.247 C 88.237 17.254 88.211 17.263 88.186 17.269 C 86.490 17.712 84.514 17.201 83.209 15.610 C 83.190 15.588 83.173 15.563 83.155 15.540 C 83.051 15.409 82.952 15.272 82.857 15.127 C 82.826 15.079 82.796 15.029 82.766 14.980 C 82.689 14.853 82.616 14.721 82.546 14.584 C 82.514 14.521 82.483 14.456 82.451 14.391 C 82.389 14.256 82.332 14.117 82.278 13.973 C 82.250 13.900 82.221 13.827 82.195 13.752 C 82.143 13.598 82.098 13.437 82.054 13.273 C 82.035 13.202 82.014 13.133 81.997 13.060 C 81.941 12.820 81.893 12.571 81.858 12.310 C 81.698 11.110 81.901 10.169 82.456 9.179 C 84.777 5.014 90.234 6.707 91.265 10.985 C 91.327 11.241 91.372 11.488 91.408 11.730 C 91.420 11.811 91.425 11.887 91.433 11.965 C 91.451 12.123 91.467 12.280 91.475 12.432 C 91.479 12.522 91.478 12.608 91.478 12.695 C 91.479 12.831 91.479 12.964 91.471 13.094 Z " transform="matrix(0.23170548677444458, 0, 0, -0.23170548677444458, -1.65, 21.05)"/>
      <path id="White" fill="#FFFFFF" d="M 91.434 11.965 C 91.425 11.886 91.420 11.810 91.409 11.730 C 91.374 11.489 91.328 11.241 91.266 10.985 C 90.236 6.707 84.779 5.014 82.457 9.179 C 81.902 10.169 81.699 11.110 81.859 12.310 C 81.894 12.571 81.942 12.820 81.998 13.060 C 82.015 13.134 82.036 13.202 82.055 13.273 C 82.099 13.437 82.144 13.598 82.196 13.752 C 82.222 13.828 82.251 13.900 82.279 13.973 C 82.333 14.117 82.390 14.256 82.452 14.391 C 82.482 14.456 82.514 14.521 82.547 14.584 C 82.616 14.722 82.690 14.854 82.767 14.980 C 82.797 15.030 82.827 15.080 82.858 15.127 C 82.953 15.272 83.052 15.409 83.156 15.540 C 83.174 15.563 83.191 15.587 83.210 15.610 C 84.515 17.201 86.490 17.713 88.187 17.269 C 88.212 17.262 88.238 17.253 88.263 17.247 C 88.397 17.209 88.530 17.166 88.659 17.117 C 88.696 17.103 88.732 17.087 88.769 17.073 C 88.886 17.024 89.001 16.971 89.114 16.913 C 89.154 16.892 89.194 16.871 89.234 16.850 C 89.341 16.790 89.446 16.725 89.547 16.657 C 89.586 16.631 89.625 16.606 89.663 16.578 C 89.766 16.504 89.863 16.424 89.959 16.341 C 89.991 16.313 90.025 16.287 90.057 16.258 C 90.166 16.157 90.270 16.050 90.369 15.937 C 90.384 15.921 90.398 15.908 90.412 15.892 C 90.525 15.759 90.631 15.618 90.728 15.469 C 90.742 15.448 90.753 15.424 90.767 15.403 C 90.845 15.277 90.920 15.147 90.988 15.010 C 91.014 14.956 91.037 14.899 91.061 14.843 C 91.110 14.733 91.157 14.621 91.198 14.504 C 91.222 14.436 91.242 14.364 91.263 14.294 C 91.296 14.182 91.327 14.068 91.354 13.951 C 91.371 13.873 91.386 13.794 91.400 13.714 C 91.421 13.595 91.437 13.473 91.450 13.349 C 91.459 13.265 91.468 13.180 91.472 13.094 C 91.480 12.964 91.481 12.831 91.480 12.696 C 91.480 12.609 91.481 12.523 91.477 12.433 C 91.468 12.281 91.451 12.124 91.434 11.965 Z " transform="matrix(0.23170548677444458, 0, 0, -0.23170548677444458, -1.65, 21.05)"/>
      <path id="Pupil" d="M 86.631 6.538 C 87.386 6.538 88.070 6.845 88.566 7.340 C 89.061 7.836 89.368 8.520 89.368 9.275 C 89.368 10.030 89.061 10.714 88.566 11.210 C 88.070 11.705 87.386 12.012 86.631 12.012 C 85.876 12.012 85.192 11.705 84.696 11.210 C 84.201 10.714 83.894 10.030 83.894 9.275 C 83.894 8.520 84.201 7.836 84.696 7.340 C 85.192 6.845 85.876 6.538 86.631 6.538 Z " transform="matrix(0.23170548677444458, 0, 0, -0.23170548677444458, -1.65, 21.05)"/>
    </g>
    <g id="Body">
      <path id="Body_Fill" fill="#FF0000" d="M 75.717 31.764 C 83.529 31.728 93.630 34.689 94.745 39 C 95.709 42.714 93.974 46.033 91.931 48.974 C 88.451 53.984 87.451 60.867 84.747 65.870 C 82.919 69.255 79.201 70.819 75.717 70.681 C 72.234 70.822 68.514 69.255 66.687 65.870 C 63.985 60.866 62.517 53.981 59.037 48.974 C 56.995 46.034 55.259 42.714 56.221 39 C 57.338 34.689 67.904 31.728 75.717 31.764 Z " transform="matrix(0.23170548677444458, 0, 0, -0.23170548677444458, -1.65, 21.05)"/>
      <path id="Body_Outline" fill="#272525" d="M 95.424 33.779 C 90.905 30.648 83.340 29.516 75.767 29.516 L 75.665 29.516 C 68.092 29.516 60.527 30.649 56.007 33.779 C 51.575 36.848 52.101 43.299 56.007 48.271 C 60.323 53.763 62.691 67.697 64.690 70.094 C 67.201 73.107 71.413 73.413 75.764 73.418 C 80.017 73.413 84.230 73.106 86.742 70.094 C 88.740 67.697 91.109 53.763 95.425 48.271 C 99.329 43.300 99.856 36.849 95.424 33.779 Z M 91.931 48.974 C 88.451 53.984 87.451 60.867 84.747 65.870 C 82.919 69.255 79.201 70.819 75.717 70.681 C 72.234 70.822 68.514 69.255 66.687 65.870 C 63.985 60.866 62.517 53.981 59.037 48.974 C 56.995 46.034 55.259 42.714 56.221 39 C 57.338 34.689 67.904 31.727 75.717 31.764 C 83.529 31.728 93.630 34.689 94.745 39 C 95.709 42.714 93.974 46.033 91.931 48.974 Z " transform="matrix(0.23170548677444458, 0, 0, -0.23170548677444458, -1.65, 21.05)"/>
    </g>
  </g>
</svg>